<svg xmlns="http://www.w3.org/2000/svg" xmlns:xlink="http://www.w3.org/1999/xlink" width="32" height="31.347" viewBox="0 0 32 31.347">
  <defs>
    <clipPath id="clip-path">
      <rect id="사각형_476430" data-name="사각형 476430" width="32" height="31.347" fill="#fff"/>
    </clipPath>
  </defs>
  <g id="bi" opacity="0.7">
    <g id="그룹_666974" data-name="그룹 666974" clip-path="url(#clip-path)">
      <path id="패스_1554990" data-name="패스 1554990" d="M4.386,23.437a.926.926,0,0,1,.14.338,1.413,1.413,0,0,1,.025.356,1.062,1.062,0,0,1-.5.908,1.525,1.525,0,0,1-.906.2,1.552,1.552,0,0,1-.883-.3,1.06,1.06,0,0,1-.4-.951,1.021,1.021,0,0,1,.5-.88,1.555,1.555,0,0,1,.915-.208,1.846,1.846,0,0,1,.483.094,1.337,1.337,0,0,1,.425.208l.293-.337.22.208Zm-.4-.021a1.3,1.3,0,0,0-.324-.134,1.736,1.736,0,0,0-.405-.063,1.344,1.344,0,0,0-.829.165A.737.737,0,0,0,2.112,24a.77.77,0,0,0,.249.659,1.326,1.326,0,0,0,.805.263A1.286,1.286,0,0,0,4,24.741a.779.779,0,0,0,.3-.625.889.889,0,0,0-.015-.225.672.672,0,0,0-.082-.244l-.221.261-.228-.215Z" transform="translate(-0.716 -8.767)" fill="#fff"/>
      <path id="패스_1554991" data-name="패스 1554991" d="M2.751,18.529l1.711.438a.871.871,0,0,1,.567.374,1,1,0,0,1,.046.771.942.942,0,0,1-.419.647A.892.892,0,0,1,4,20.789l-1.715-.44.079-.31,1.75.448a.61.61,0,0,0,.471-.027.871.871,0,0,0,.227-.9.627.627,0,0,0-.42-.278L2.672,18.84Z" transform="translate(-0.881 -7.105)" fill="#fff"/>
      <path id="패스_1554992" data-name="패스 1554992" d="M5.574,16.914l.587.578-.144.306L4.08,15.833l.124-.267,2.745.243-.143.3-.817-.081ZM5.718,16l-1.187-.112.846.842Z" transform="translate(-1.57 -5.969)" fill="#fff"/>
      <path id="패스_1554993" data-name="패스 1554993" d="M7.633,14.138l.746-1.07.207.144-.926,1.334L5.54,13.069l.181-.261Z" transform="translate(-2.132 -4.911)" fill="#fff"/>
      <path id="패스_1554994" data-name="패스 1554994" d="M9.907,11.593l-.21.24L7.759,10.118l.209-.239Z" transform="translate(-2.985 -3.788)" fill="#fff"/>
      <path id="패스_1554995" data-name="패스 1554995" d="M8.773,8.26l1.49-1.334.175.194L9.8,7.686,11.35,9.429l-.235.211L9.565,7.9l-.621.557Z" transform="translate(-3.375 -2.656)" fill="#fff"/>
      <path id="패스_1554996" data-name="패스 1554996" d="M14.173,7.328l-.261.162-.559-.9-1.593-.81.293-.184,1.279.646-.041-1.42.3-.182.018,1.778Z" transform="translate(-4.525 -1.78)" fill="#fff"/>
      <path id="패스_1554997" data-name="패스 1554997" d="M18.987,4.757l-.041.824-.322.095L18.8,2.919l.281-.081,1.643,2.211-.321.1-.482-.67Zm.778-.5-.7-.965L19,4.482Z" transform="translate(-7.166 -1.088)" fill="#fff"/>
      <path id="패스_1554998" data-name="패스 1554998" d="M23.525,2.635a.448.448,0,0,0-.206-.335.591.591,0,0,0-.423-.1.614.614,0,0,0-.341.13.315.315,0,0,0-.109.3.392.392,0,0,0,.126.282,1.956,1.956,0,0,0,.537.2,2.8,2.8,0,0,1,.657.236.623.623,0,0,1,.251.481.638.638,0,0,1-.175.568,1.119,1.119,0,0,1-.652.246.987.987,0,0,1-.76-.16.914.914,0,0,1-.276-.614l.316-.036a.655.655,0,0,0,.2.469.641.641,0,0,0,.484.085.872.872,0,0,0,.429-.131.355.355,0,0,0,.117-.345.448.448,0,0,0-.039-.168l-.095-.133a.971.971,0,0,0-.207-.111c-.086-.033-.211-.073-.367-.115l-.065-.018a2.408,2.408,0,0,1-.591-.219.563.563,0,0,1-.236-.437.608.608,0,0,1,.151-.5.984.984,0,0,1,.617-.252.925.925,0,0,1,.744.169.806.806,0,0,1,.225.48Z" transform="translate(-8.503 -0.745)" fill="#fff"/>
      <path id="패스_1554999" data-name="패스 1554999" d="M27.5,2.654a.447.447,0,0,0-.141-.366.612.612,0,0,0-.4-.171.587.587,0,0,0-.358.068.318.318,0,0,0-.164.275.387.387,0,0,0,.081.3A1.642,1.642,0,0,0,27,3.048a2.488,2.488,0,0,1,.6.345.627.627,0,0,1,.169.521.654.654,0,0,1-.274.531,1.155,1.155,0,0,1-.683.123,1.008,1.008,0,0,1-.72-.286.9.9,0,0,1-.165-.657l.316.02a.658.658,0,0,0,.117.5.667.667,0,0,0,.464.169.834.834,0,0,0,.443-.054.362.362,0,0,0,.179-.319.556.556,0,0,0-.01-.172l-.07-.149a1.056,1.056,0,0,0-.186-.144c-.081-.049-.2-.109-.341-.179l-.06-.028a2.432,2.432,0,0,1-.544-.32.549.549,0,0,1-.154-.469.593.593,0,0,1,.237-.468.961.961,0,0,1,.65-.143.915.915,0,0,1,.7.3.789.789,0,0,1,.138.511Z" transform="translate(-9.977 -0.714)" fill="#fff"/>
      <path id="패스_1555000" data-name="패스 1555000" d="M32,2.738l-.434,1.711a.873.873,0,0,1-.372.57,1.014,1.014,0,0,1-.771.049.936.936,0,0,1-.646-.422.928.928,0,0,1-.031-.652l.436-1.72.311.08-.444,1.757a.6.6,0,0,0,.028.468.846.846,0,0,0,.895.226.607.607,0,0,0,.281-.423l.436-1.725Z" transform="translate(-11.427 -0.872)" fill="#fff"/>
      <path id="패스_1555001" data-name="패스 1555001" d="M33.31,6l-.286-.133,1.093-2.348.979.454a.925.925,0,0,1,.428.353.658.658,0,0,1-.017.63.77.77,0,0,1-.27.342.394.394,0,0,1-.272.063l0,0a.467.467,0,0,1,.1.194.614.614,0,0,1-.07.362l-.165.4-.006.011a.573.573,0,0,0-.033.144l.049.134-.04.091-.365-.172a1.277,1.277,0,0,1,.092-.321c.038-.105.091-.226.152-.361a.551.551,0,0,0,.049-.329.379.379,0,0,0-.223-.225L33.8,4.955ZM33.9,4.726l.642.3a.615.615,0,0,0,.37.079.436.436,0,0,0,.307-.285.45.45,0,0,0,.027-.389.464.464,0,0,0-.242-.208l-.712-.337Z" transform="translate(-12.706 -1.349)" fill="#fff"/>
      <path id="패스_1555002" data-name="패스 1555002" d="M37.816,8.676,36.353,7.637l1.5-2.115,1.445,1.03-.148.211-1.189-.843-.5.707,1.088.774-.15.207L37.31,6.831l-.553.781,1.2.856Z" transform="translate(-13.987 -2.117)" fill="#fff"/>
      <path id="패스_1555003" data-name="패스 1555003" d="M41,8.057l.643.662a.984.984,0,0,1,.317.769,1.348,1.348,0,0,1-.461.85,1.731,1.731,0,0,1-.835.5.908.908,0,0,1-.859-.3l-.655-.671Zm-1.44,1.864.444.456a.576.576,0,0,0,.565.187,1.564,1.564,0,0,0,.7-.453,1.23,1.23,0,0,0,.4-.66.613.613,0,0,0-.2-.531l-.435-.449Z" transform="translate(-15.065 -3.089)" fill="#fff"/>
      <path id="패스_1555004" data-name="패스 1555004" d="M42.884,14.644l-.157-.276L44.984,13.1l.821,1.464-.226.123L44.914,13.5l-.739.416.578,1.035-.215.123-.581-1.035Z" transform="translate(-16.44 -5.022)" fill="#fff"/>
      <path id="패스_1555021" data-name="패스 1555021" d="M0,0,2.585,0V.317L0,.319Z" transform="translate(27.259 11.21) rotate(-22.216)" fill="#fff"/>
      <path id="패스_1555005" data-name="패스 1555005" d="M44.932,19.342l-.081-.306,2.5-.662.274,1.045a.941.941,0,0,1,.01.557.66.66,0,0,1-.5.387.747.747,0,0,1-.432.011.387.387,0,0,1-.223-.169v0a.551.551,0,0,1-.084.2.658.658,0,0,1-.322.179l-.413.127-.009,0a.552.552,0,0,0-.137.067l-.07.123-.1.024-.1-.387a1.182,1.182,0,0,1,.3-.137c.108-.036.232-.075.374-.113a.558.558,0,0,0,.282-.172.363.363,0,0,0,.032-.313l-.2-.765Zm1.357-.357.18.683a.642.642,0,0,0,.174.336.557.557,0,0,0,.735-.171.507.507,0,0,0,.007-.324l-.2-.761Z" transform="translate(-17.257 -7.046)" fill="#fff"/>
      <path id="패스_1555006" data-name="패스 1555006" d="M45.872,24.928l1.911-.105-1.95-.63-.015-.261,1.868-.845-1.907.106-.02-.317,2.582-.145.021.384-1.988.912,2.076.683.02.39-2.58.141Z" transform="translate(-17.606 -8.716)" fill="#fff"/>
      <path id="패스_1555007" data-name="패스 1555007" d="M16,0A16.037,16.037,0,0,0,9.541,30.7v-.383a15.652,15.652,0,1,1,12.918,0V30.7A16.037,16.037,0,0,0,16,0" transform="translate(0 0)" fill="#fff"/>
      <path id="패스_1555008" data-name="패스 1555008" d="M16,0A16.037,16.037,0,0,0,9.541,30.7v-.383a15.652,15.652,0,1,1,12.918,0V30.7A16.037,16.037,0,0,0,16,0" transform="translate(0 0)" fill="#fff"/>
      <path id="패스_1555009" data-name="패스 1555009" d="M18.677,7.052a11.739,11.739,0,0,0-6.4,21.564V28.2a11.367,11.367,0,1,1,12.745.041v.408a11.736,11.736,0,0,0-6.345-21.6" transform="translate(-2.679 -2.704)" fill="#fff"/>
      <path id="패스_1555010" data-name="패스 1555010" d="M23.981,38.923v1.626l1.043,1.278,2.607-3.718V37.063l-2.55,3.194Z" transform="translate(-9.227 -14.212)" fill="#fff"/>
      <path id="패스_1555011" data-name="패스 1555011" d="M16.091,18.89c.692-.014.791-.158.791-.757v-3.75c0-.621-.114-.724-.791-.756v-.162H18.5v.162c-.593.024-.794.08-.794.756v3.75c0,.658.193.743.794.757v.162H16.091Z" transform="translate(-6.191 -5.163)" fill="#fff"/>
      <path id="패스_1555012" data-name="패스 1555012" d="M24.275,15.07h-.2a1.659,1.659,0,0,0-1.511-1.451.775.775,0,0,0-.818.787c0,1.266,2.71,1.431,2.71,3.16a1.573,1.573,0,0,1-1.715,1.527,6.409,6.409,0,0,1-1.258-.285.258.258,0,0,0-.252.279h-.18L20.807,17.3h.186c.154.4.569,1.493,1.664,1.493a.925.925,0,0,0,.976-.936c0-.483-.129-.768-1.325-1.493-.746-.447-1.265-.817-1.265-1.655a1.393,1.393,0,0,1,1.47-1.433,6.282,6.282,0,0,1,1.127.285c.226,0,.267-.194.283-.285H24.1Z" transform="translate(-8.006 -5.09)" fill="#fff"/>
      <path id="패스_1555013" data-name="패스 1555013" d="M30.7,18.793c-.9,0-1.732-.75-1.732-2.607,0-1.924.9-2.607,1.732-2.607s1.726.683,1.726,2.607c0,1.857-.829,2.607-1.726,2.607m0,.3a2.667,2.667,0,0,0,2.654-2.9,2.667,2.667,0,1,0-5.311,0,2.667,2.667,0,0,0,2.657,2.9" transform="translate(-10.789 -5.09)" fill="#fff"/>
      <path id="패스_1555014" data-name="패스 1555014" d="M16.148,27.017a.37.37,0,0,1-.132.336,1.382,1.382,0,0,1-.78.3c-.859,0-1.037-.985-1.037-1.628,0-.694.186-1.474.867-1.474,1.08,0,1.08,1.644,1.08,2.141Zm-2.46,3.18a3.4,3.4,0,0,0,3.249-3.528c0-1.411-.781-2.362-1.781-2.362a1.821,1.821,0,0,0-1.7,2.035,1.521,1.521,0,0,0,1.461,1.669,1.821,1.821,0,0,0,1.195-.465l.016.018a3.169,3.169,0,0,1-2.462,2.464Z" transform="translate(-5.176 -9.32)" fill="#fff"/>
      <path id="패스_1555015" data-name="패스 1555015" d="M21.809,24.529c1.039,0,1.058,2.116,1.058,2.691,0,.669-.019,2.689-1.058,2.689S20.752,27.9,20.752,27.22c0-.575.019-2.691,1.056-2.691m0-.221c-1.494,0-1.835,1.919-1.835,2.912,0,1.02.341,2.909,1.835,2.909s1.836-1.888,1.836-2.909c0-.993-.343-2.912-1.836-2.912" transform="translate(-7.685 -9.321)" fill="#fff"/>
      <path id="패스_1555016" data-name="패스 1555016" d="M28.41,24.529c1.038,0,1.052,2.116,1.052,2.691,0,.669-.014,2.689-1.052,2.689S27.352,27.9,27.352,27.22c0-.575.019-2.691,1.058-2.691m0-.221c-1.5,0-1.836,1.919-1.836,2.912,0,1.02.341,2.909,1.836,2.909s1.835-1.888,1.835-2.909c0-.993-.342-2.912-1.835-2.912" transform="translate(-10.225 -9.321)" fill="#fff"/>
      <path id="패스_1555017" data-name="패스 1555017" d="M34.38,29.884c.469-.018.769-.036.769-.657V25.4c0-.178,0-.4-.276-.4-.095,0-.095,0-.551.182v-.114l1.463-.769.065.019v5.061c0,.405.161.5.769.5v.126H34.38Z" transform="translate(-13.206 -9.32)" fill="#fff"/>
      <path id="패스_1555018" data-name="패스 1555018" d="M19.358,45.987H17.63a.679.679,0,0,0-.653.655v.507l.151.422.463.208h1.723a.558.558,0,0,1,.369.06l.03.081v.412l-.04.134a.444.444,0,0,1-.305.081H17.424a.549.549,0,0,1-.04-.282l-.433-.021a.788.788,0,0,0,.169.6l.3.137h1.943A.808.808,0,0,0,20,48.748l.144-.44V47.92l-.174-.408a.963.963,0,0,0-.682-.168H17.6c-.125-.008-.193-.07-.19-.183v-.519c0-.181.2-.216.244-.222h1.711a.361.361,0,0,1,.267.071.343.343,0,0,1,.078.218l.433.017a.765.765,0,0,0-.2-.543.756.756,0,0,0-.585-.2" transform="translate(-6.521 -17.633)" fill="#fff"/>
      <path id="패스_1555019" data-name="패스 1555019" d="M32.154,45.987H30.426a.68.68,0,0,0-.654.655v.507l.151.422.462.208h1.727a.555.555,0,0,1,.367.06l.03.081v.412l-.041.134a.44.44,0,0,1-.3.081H30.222a.532.532,0,0,1-.04-.282l-.434-.021a.781.781,0,0,0,.169.6l.306.137h1.942a.8.8,0,0,0,.632-.232l.145-.44V47.92l-.177-.408a.959.959,0,0,0-.68-.168H30.4c-.124-.008-.194-.07-.191-.183v-.519c0-.181.2-.216.244-.222h1.712a.355.355,0,0,1,.266.071.325.325,0,0,1,.079.218l.433.017a.694.694,0,0,0-.789-.739" transform="translate(-11.445 -17.633)" fill="#fff"/>
      <path id="패스_1555020" data-name="패스 1555020" d="M24.171,46.069c-.277.014-.781.169-.781.679v1.591l.193.482.434.169h1.789a1.088,1.088,0,0,0,.708-.218.689.689,0,0,0,.226-.5V47.248H25.5v.437h.8v.578a.262.262,0,0,1-.082.186.613.613,0,0,1-.4.105H24.018c-.154,0-.188-.119-.193-.218V46.748c0-.222.342-.243.358-.246l1.7,0a.289.289,0,0,1,.225.072.279.279,0,0,1,.066.188l.437.022a.747.747,0,0,0-.185-.511.728.728,0,0,0-.545-.207Z" transform="translate(-8.999 -17.665)" fill="#fff"/>
    </g>
  </g>
</svg>
