<svg xmlns="http://www.w3.org/2000/svg" xmlns:xlink="http://www.w3.org/1999/xlink" width="32" height="32" viewBox="0 0 32 32">
  <defs>
    <clipPath id="clip-path">
      <rect id="사각형_476428" data-name="사각형 476428" width="32" height="32" fill="#fff"/>
    </clipPath>
  </defs>
  <g id="bi" opacity="0.7">
    <g id="그룹_666972" data-name="그룹 666972" clip-path="url(#clip-path)">
      <path id="패스_1554953" data-name="패스 1554953" d="M34.614,81.928H8.255a.684.684,0,0,0-.588,1.033,16,16,0,0,0,27.536,0,.685.685,0,0,0-.588-1.033" transform="translate(-5.434 -58.806)" fill="#fff"/>
      <path id="패스_1554954" data-name="패스 1554954" d="M30.743,9.772a16,16,0,0,0-29.671,12,.684.684,0,1,0,1.276-.493A14.637,14.637,0,0,1,29.483,10.3a14.685,14.685,0,0,1,.17,10.971.684.684,0,0,0,1.275.493,16.055,16.055,0,0,0-.185-12" transform="translate(0 0)" fill="#fff"/>
      <path id="패스_1554955" data-name="패스 1554955" d="M79.34,26.167a.683.683,0,1,1-.683-.683.682.682,0,0,1,.683.683" transform="translate(-55.969 -18.292)" fill="#fff"/>
      <path id="패스_1554956" data-name="패스 1554956" d="M55.757,32.846a1.411,1.411,0,0,0,1.409,1.41h1.092v-.635H57.166a.775.775,0,0,1,0-1.549h1.092v-.635H57.166a1.411,1.411,0,0,0-1.409,1.409" transform="translate(-40.021 -22.565)" fill="#fff"/>
      <path id="패스_1554957" data-name="패스 1554957" d="M65.183,32.846a1.411,1.411,0,0,0,1.411,1.41h1.092v-.635H66.594a.775.775,0,1,1,0-1.549h1.092v-.635H66.594a1.411,1.411,0,0,0-1.411,1.409" transform="translate(-46.787 -22.565)" fill="#fff"/>
      <path id="패스_1554958" data-name="패스 1554958" d="M87.078,26.167a.683.683,0,1,1-.682-.683.682.682,0,0,1,.682.683" transform="translate(-61.523 -18.292)" fill="#fff"/>
      <path id="패스_1554959" data-name="패스 1554959" d="M78.994,31.437a1.409,1.409,0,0,0-1.092.519,1.409,1.409,0,0,0-2.5.89v1.41h.635v-1.41a.775.775,0,0,1,1.549,0v1.41h.635v-1.41a.775.775,0,0,1,1.55,0v1.41H80.4v-1.41a1.411,1.411,0,0,0-1.409-1.409" transform="translate(-54.12 -22.565)" fill="#fff"/>
      <path id="패스_1554960" data-name="패스 1554960" d="M25.836,90.487h-.313v.568h-.948v.26h2.5v-.26H25.836Z" transform="translate(-17.639 -64.95)" fill="#fff"/>
      <path id="패스_1554961" data-name="패스 1554961" d="M27.278,88.727v.147a2.625,2.625,0,0,1-.131.574l.3,0a1.426,1.426,0,0,0,.141-.59V88.61a.166.166,0,0,0-.169-.166H25.753V88.7h1.5c.02,0,.028.008.028.027" transform="translate(-18.485 -63.483)" fill="#fff"/>
      <path id="패스_1554962" data-name="패스 1554962" d="M26.629,93.914c-.513,0-.934.175-.934.56s.421.557.934.557.934-.172.934-.557-.419-.56-.934-.56m0,.859c-.36,0-.6-.1-.6-.3s.244-.3.6-.3.6.1.6.3-.239.3-.6.3" transform="translate(-18.443 -67.409)" fill="#fff"/>
      <path id="패스_1554963" data-name="패스 1554963" d="M36.876,93.925c-.335,0-.895.1-.895.565s.5.557.895.557.893-.089.893-.557-.5-.565-.893-.565m0,.864c-.28,0-.59-.056-.59-.3s.31-.308.59-.308.585.066.585.308-.31.3-.585.3" transform="translate(-25.826 -67.417)" fill="#fff"/>
      <path id="패스_1554964" data-name="패스 1554964" d="M35.083,89.555A1.7,1.7,0,0,0,35.7,90l.2-.208c-.255-.111-.654-.338-.654-.629V88.9h.526v-.255H34.4V88.9h.516v.263c0,.244-.291.533-.69.7l.2.2a1.842,1.842,0,0,0,.662-.507" transform="translate(-24.565 -63.625)" fill="#fff"/>
      <path id="패스_1554965" data-name="패스 1554965" d="M39.163,89.179h.577v.712h.31V88.356h-.31v.557h-.577Z" transform="translate(-28.11 -63.42)" fill="#fff"/>
      <path id="패스_1554966" data-name="패스 1554966" d="M45.531,89.2h-.555v-.535a.165.165,0,0,0-.163-.169H43.677v.266h.951c.019,0,.03.008.03.028l0,.718c0,.491-.634.765-1.048.864l.164.225c.543-.124,1.205-.474,1.205-1.131h.555v1.533h.314V88.356h-.314Z" transform="translate(-31.3 -63.42)" fill="#fff"/>
      <path id="패스_1554967" data-name="패스 1554967" d="M58.236,89.23h-.3v-.884h-.313v2.578h.313V89.5h.3v1.491h.314V88.347h-.314Z" transform="translate(-41.36 -63.413)" fill="#fff"/>
      <path id="패스_1554968" data-name="패스 1554968" d="M53.219,90.409c-.019,0-.028-.008-.028-.027v-.588h.737V88.749H52.878V89h.735v.516c0,.019-.008.03-.028.03h-.707V90.5a.165.165,0,0,0,.17.167,6.361,6.361,0,0,0,1.039-.073v-.252a5.1,5.1,0,0,1-.867.066" transform="translate(-37.955 -63.702)" fill="#fff"/>
      <path id="패스_1554969" data-name="패스 1554969" d="M63.189,89.652c.421,0,.734-.236.734-.6a.651.651,0,0,0-.734-.612c-.446,0-.748.258-.748.612s.28.6.748.6m0-.959c.285,0,.432.155.432.363,0,.181-.155.344-.432.344s-.438-.152-.438-.344a.392.392,0,0,1,.438-.363" transform="translate(-44.819 -63.483)" fill="#fff"/>
      <path id="패스_1554970" data-name="패스 1554970" d="M68.815,91h.318V88.365h-.318Z" transform="translate(-49.394 -63.427)" fill="#fff"/>
      <path id="패스_1554971" data-name="패스 1554971" d="M62.087,93.254v.269h.654v.912h.316v-.912a2.741,2.741,0,0,0,.779-.089l.039-.014v-.251a4.359,4.359,0,0,1-.906.086Z" transform="translate(-44.565 -66.874)" fill="#fff"/>
      <path id="패스_1554972" data-name="패스 1554972" d="M72.333,89.353c.346,0,.7-.155.7-.5s-.358-.5-.7-.5-.7.158-.7.5.358.5.7.5m0-.753c.208,0,.4.069.4.255s-.191.255-.4.255-.4-.075-.4-.255.2-.255.4-.255" transform="translate(-51.415 -63.42)" fill="#fff"/>
      <path id="패스_1554973" data-name="패스 1554973" d="M75.216,90.18h.768v.255H76.3V88.356h-.316v1.56h-.768Z" transform="translate(-53.988 -63.42)" fill="#fff"/>
      <path id="패스_1554974" data-name="패스 1554974" d="M72.95,95.62v-.41h-.316v.538a.169.169,0,0,0,.168.169h1.683v-.269H72.975a.026.026,0,0,1-.025-.028" transform="translate(-52.135 -68.34)" fill="#fff"/>
      <path id="패스_1554975" data-name="패스 1554975" d="M71.757,92.774h.321v-.432a3.158,3.158,0,0,0,.887-.086L73,92.24v-.26a4.751,4.751,0,0,1-.962.092H71.23v.272h.527Z" transform="translate(-51.127 -66.021)" fill="#fff"/>
      <path id="패스_1554976" data-name="패스 1554976" d="M82.142,88.523h-.668v-.293h-.319v.293H80.5v.269h1.641Z" transform="translate(-57.782 -63.329)" fill="#fff"/>
      <path id="패스_1554977" data-name="패스 1554977" d="M81.388,91.529a.59.59,0,0,0,.543-.543.636.636,0,0,0-.709-.557c-.4,0-.7.233-.7.557a.585.585,0,0,0,.556.546v.28h-.712v.261h.785a3.56,3.56,0,0,0,1-.089l.04-.016V91.72a4.044,4.044,0,0,1-.8.091Zm-.546-.543c0-.178.166-.3.38-.3s.382.122.382.3-.16.3-.382.3-.38-.119-.38-.3" transform="translate(-57.683 -64.908)" fill="#fff"/>
      <path id="패스_1554978" data-name="패스 1554978" d="M87.229,88.346v2.641h.316V88.346Z" transform="translate(-62.611 -63.413)" fill="#fff"/>
      <path id="패스_1554979" data-name="패스 1554979" d="M13.657,49.647a4.31,4.31,0,0,0,1.96,1.452l.416-.507c-.692-.228-2.047-1.04-2.047-1.884v-.824h-.658v.824c0,.869-1.372,1.656-2.07,1.884l.432.514a4.694,4.694,0,0,0,1.966-1.459" transform="translate(-8.081 -34.37)" fill="#fff"/>
      <path id="패스_1554980" data-name="패스 1554980" d="M13.459,58.13H12.8v1.51H10.524v.608h5.189V59.64H13.459Z" transform="translate(-7.554 -41.725)" fill="#fff"/>
      <path id="패스_1554981" data-name="패스 1554981" d="M61.307,46.962h-.658V53h.658V49.733h.743v-.6h-.743Z" transform="translate(-43.533 -33.708)" fill="#fff"/>
      <path id="패스_1554982" data-name="패스 1554982" d="M48.6,49.868V48.643H49.8v-.6H46.764v.6h1.171v1.2a3.524,3.524,0,0,1-1.483,2.144l.467.463a6.182,6.182,0,0,0,1.366-1.56,6.008,6.008,0,0,0,1.31,1.452l.438-.469a3.254,3.254,0,0,1-1.435-2" transform="translate(-33.342 -34.483)" fill="#fff"/>
      <path id="패스_1554983" data-name="패스 1554983" d="M67.878,49.155l.368.494A3.808,3.808,0,0,0,70.092,48.5a3.984,3.984,0,0,0,1.856,1.148l.358-.494A2.743,2.743,0,0,1,70.518,48l-.029-.063h1.481v-.571H68.218v.571H69.71l-.028.057a2.761,2.761,0,0,1-1.8,1.161" transform="translate(-48.721 -33.999)" fill="#fff"/>
      <path id="패스_1554984" data-name="패스 1554984" d="M66.448,57.071h2.283V57.6c-1.054.07-1.626.489-1.626,1.167,0,.761.7,1.173,1.949,1.173S71,59.507,71,58.771c0-.685-.565-1.1-1.621-1.167v-.533h2.267v-.6H66.448Zm3.891,1.7c0,.349-.387.583-1.285.583s-1.286-.228-1.286-.583c0-.336.392-.6,1.286-.6s1.285.266,1.285.6" transform="translate(-47.695 -40.532)" fill="#fff"/>
      <path id="패스_1554985" data-name="패스 1554985" d="M42.754,52.983h.664V46.939h-.664Z" transform="translate(-30.688 -33.692)" fill="#fff"/>
      <path id="패스_1554986" data-name="패스 1554986" d="M32.207,49.492H30.719V47.906h-.652V51.92a.36.36,0,0,0,.352.381h2.445v-4.4h-.657Zm0,2.144V51.7h-1.43c-.04,0-.058-.019-.058-.063V50.1h1.488Z" transform="translate(-21.581 -34.386)" fill="#fff"/>
      <path id="패스_1554987" data-name="패스 1554987" d="M99.853,50.405h.645V46.962h-.645Z" transform="translate(-71.672 -33.708)" fill="#fff"/>
      <path id="패스_1554988" data-name="패스 1554988" d="M87.167,49.322A3.441,3.441,0,0,0,88.6,50.369l.369-.476c-.663-.323-1.5-.85-1.5-1.5V47.255H86.8V48.4c0,.729-.721,1.364-1.429,1.738l.432.456a4.333,4.333,0,0,0,1.367-1.275" transform="translate(-61.275 -33.919)" fill="#fff"/>
      <path id="패스_1554989" data-name="패스 1554989" d="M88.737,62.3a.356.356,0,0,0,.352.381h3.384V60.423H88.737Zm.635-1.294h2.467V62.1H89.429c-.04,0-.058-.019-.058-.064Z" transform="translate(-63.693 -43.37)" fill="#fff"/>
    </g>
  </g>
</svg>
